#N canvas 21 221 846 610 10;
#X obj 88 102 r onOff;
#X obj 90 398 s sendCounter;
#X obj 88 51 s onOff;
#X obj 88 11 tgl 15 0 empty empty empty 17 7 0 10 -262144 -1 -1 0 1
;
#X obj 89 212 float;
#X obj 153 186 + 1;
#X obj 89 258 mod 10;
#X floatatom 89 280 5 0 0 0 - - -, f 5;
#X obj 371 437 osc~;
#X obj 371 531 dac~;
#X floatatom 370 397 5 0 0 0 - - -, f 5;
#X obj 370 355 *;
#X obj 89 159 metro 500;
#X msg 381 294 50;
#X obj 389 233 r onOff;
#X obj 418 438 s sendfCounter;
#X obj 535 332 vsl 15 128 0 5 0 0 empty empty empty 0 -9 0 10 -262144
-1 -1 0 1;
#X obj 473 172 r slider1;
#X obj 371 480 *~;
#X msg 686 250 open Yiruma.wav \, 1;
#X obj 757 345 bng 15 250 50 0 empty empty empty 17 7 0 10 -262144
-1 -1;
#X obj 650 167 s onOff2;
#X obj 649 126 tgl 15 0 empty empty empty 17 7 0 10 -262144 -1 -1 0
1;
#X obj 619 247 r onOff2;
#X obj 675 360 *~ 1;
#X obj 719 362 *~ 1;
#X obj 688 304 readsf~ 2;
#X obj 691 427 dac~;
#X connect 0 0 12 0;
#X connect 3 0 2 0;
#X connect 4 0 5 0;
#X connect 4 0 6 0;
#X connect 5 0 4 1;
#X connect 6 0 7 0;
#X connect 7 0 1 0;
#X connect 7 0 11 0;
#X connect 8 0 18 0;
#X connect 10 0 15 0;
#X connect 10 0 8 0;
#X connect 11 0 10 0;
#X connect 12 0 4 0;
#X connect 13 0 11 1;
#X connect 14 0 13 0;
#X connect 16 0 18 1;
#X connect 17 0 16 0;
#X connect 18 0 9 0;
#X connect 18 0 9 1;
#X connect 19 0 26 0;
#X connect 22 0 21 0;
#X connect 23 0 26 0;
#X connect 24 0 27 0;
#X connect 25 0 27 1;
#X connect 26 0 24 0;
#X connect 26 1 25 0;
#X connect 26 2 20 0;
